<mxfile host="Electron" agent="Mozilla/5.0 (Macintosh; Intel Mac OS X 10_15_7) AppleWebKit/537.36 (KHTML, like Gecko) draw.io/24.7.5 Chrome/126.0.6478.183 Electron/31.3.0 Safari/537.36" version="24.7.5">
  <diagram name="第 1 页" id="eUTnPjuZtsXdZUpJ_8rI">
    <mxGraphModel dx="502" dy="399" grid="1" gridSize="10" guides="1" tooltips="1" connect="1" arrows="1" fold="1" page="1" pageScale="1" pageWidth="827" pageHeight="1169" math="0" shadow="0">
      <root>
        <mxCell id="0" />
        <mxCell id="1" parent="0" />
        <mxCell id="uEN0KCoKJImzQFJew8uD-44" style="edgeStyle=orthogonalEdgeStyle;rounded=0;orthogonalLoop=1;jettySize=auto;html=1;exitX=1;exitY=0.5;exitDx=0;exitDy=0;entryX=0;entryY=0.5;entryDx=0;entryDy=0;" parent="1" source="uEN0KCoKJImzQFJew8uD-24" target="uEN0KCoKJImzQFJew8uD-26" edge="1">
          <mxGeometry relative="1" as="geometry" />
        </mxCell>
        <mxCell id="uEN0KCoKJImzQFJew8uD-24" value="開發新功能" style="rounded=0;whiteSpace=wrap;html=1;fillColor=#f8cecc;strokeColor=#b85450;" parent="1" vertex="1">
          <mxGeometry x="110" y="440" width="80" height="40" as="geometry" />
        </mxCell>
        <mxCell id="uEN0KCoKJImzQFJew8uD-47" style="edgeStyle=orthogonalEdgeStyle;rounded=0;orthogonalLoop=1;jettySize=auto;html=1;exitX=1;exitY=0.5;exitDx=0;exitDy=0;entryX=0;entryY=0.5;entryDx=0;entryDy=0;" parent="1" source="uEN0KCoKJImzQFJew8uD-25" target="uEN0KCoKJImzQFJew8uD-46" edge="1">
          <mxGeometry relative="1" as="geometry" />
        </mxCell>
        <mxCell id="uEN0KCoKJImzQFJew8uD-25" value="修復 bug" style="rounded=0;whiteSpace=wrap;html=1;fillColor=#f8cecc;strokeColor=#b85450;" parent="1" vertex="1">
          <mxGeometry x="110" y="520" width="80" height="40" as="geometry" />
        </mxCell>
        <mxCell id="uEN0KCoKJImzQFJew8uD-45" style="edgeStyle=orthogonalEdgeStyle;rounded=0;orthogonalLoop=1;jettySize=auto;html=1;exitX=1;exitY=0.5;exitDx=0;exitDy=0;entryX=0;entryY=0.5;entryDx=0;entryDy=0;" parent="1" source="uEN0KCoKJImzQFJew8uD-26" target="uEN0KCoKJImzQFJew8uD-31" edge="1">
          <mxGeometry relative="1" as="geometry" />
        </mxCell>
        <mxCell id="uEN0KCoKJImzQFJew8uD-26" value="新分支" style="rhombus;whiteSpace=wrap;html=1;" parent="1" vertex="1">
          <mxGeometry x="210" y="440" width="60" height="40" as="geometry" />
        </mxCell>
        <mxCell id="uEN0KCoKJImzQFJew8uD-69" style="edgeStyle=orthogonalEdgeStyle;rounded=0;orthogonalLoop=1;jettySize=auto;html=1;exitX=1;exitY=0.5;exitDx=0;exitDy=0;entryX=0;entryY=0.5;entryDx=0;entryDy=0;" parent="1" source="uEN0KCoKJImzQFJew8uD-31" target="uEN0KCoKJImzQFJew8uD-68" edge="1">
          <mxGeometry relative="1" as="geometry" />
        </mxCell>
        <mxCell id="uEN0KCoKJImzQFJew8uD-31" value="feature/{模組}-{功能}" style="shape=parallelogram;perimeter=parallelogramPerimeter;whiteSpace=wrap;html=1;fixedSize=1;fillColor=#dae8fc;strokeColor=#6c8ebf;" parent="1" vertex="1">
          <mxGeometry x="280" y="440" width="140" height="40" as="geometry" />
        </mxCell>
        <mxCell id="klztxDfXL3SWlEv4E9YF-6" style="edgeStyle=orthogonalEdgeStyle;rounded=0;orthogonalLoop=1;jettySize=auto;html=1;exitX=0;exitY=0.5;exitDx=0;exitDy=0;entryX=1;entryY=0.5;entryDx=0;entryDy=0;" edge="1" parent="1" source="uEN0KCoKJImzQFJew8uD-36" target="klztxDfXL3SWlEv4E9YF-2">
          <mxGeometry relative="1" as="geometry" />
        </mxCell>
        <mxCell id="uEN0KCoKJImzQFJew8uD-36" value="dev" style="shape=parallelogram;perimeter=parallelogramPerimeter;whiteSpace=wrap;html=1;fixedSize=1;fillColor=#dae8fc;strokeColor=#6c8ebf;" parent="1" vertex="1">
          <mxGeometry x="370" y="600" width="140" height="40" as="geometry" />
        </mxCell>
        <mxCell id="uEN0KCoKJImzQFJew8uD-71" style="edgeStyle=orthogonalEdgeStyle;rounded=0;orthogonalLoop=1;jettySize=auto;html=1;exitX=1;exitY=0.5;exitDx=0;exitDy=0;entryX=0;entryY=0.5;entryDx=0;entryDy=0;" parent="1" source="uEN0KCoKJImzQFJew8uD-41" target="uEN0KCoKJImzQFJew8uD-70" edge="1">
          <mxGeometry relative="1" as="geometry" />
        </mxCell>
        <mxCell id="uEN0KCoKJImzQFJew8uD-41" value="bugfix/{模組}-{描述}" style="shape=parallelogram;perimeter=parallelogramPerimeter;whiteSpace=wrap;html=1;fixedSize=1;fillColor=#dae8fc;strokeColor=#6c8ebf;" parent="1" vertex="1">
          <mxGeometry x="280" y="520" width="140" height="40" as="geometry" />
        </mxCell>
        <mxCell id="uEN0KCoKJImzQFJew8uD-48" style="edgeStyle=orthogonalEdgeStyle;rounded=0;orthogonalLoop=1;jettySize=auto;html=1;exitX=1;exitY=0.5;exitDx=0;exitDy=0;entryX=0;entryY=0.5;entryDx=0;entryDy=0;" parent="1" source="uEN0KCoKJImzQFJew8uD-46" target="uEN0KCoKJImzQFJew8uD-41" edge="1">
          <mxGeometry relative="1" as="geometry" />
        </mxCell>
        <mxCell id="uEN0KCoKJImzQFJew8uD-46" value="新分支" style="rhombus;whiteSpace=wrap;html=1;" parent="1" vertex="1">
          <mxGeometry x="210" y="520" width="60" height="40" as="geometry" />
        </mxCell>
        <mxCell id="klztxDfXL3SWlEv4E9YF-48" style="edgeStyle=orthogonalEdgeStyle;rounded=0;orthogonalLoop=1;jettySize=auto;html=1;exitX=1;exitY=0.5;exitDx=0;exitDy=0;entryX=0.5;entryY=0;entryDx=0;entryDy=0;" edge="1" parent="1" source="uEN0KCoKJImzQFJew8uD-55" target="uEN0KCoKJImzQFJew8uD-58">
          <mxGeometry relative="1" as="geometry" />
        </mxCell>
        <mxCell id="uEN0KCoKJImzQFJew8uD-55" value="功能穩定" style="rounded=0;whiteSpace=wrap;html=1;fillColor=#f8cecc;strokeColor=#b85450;" parent="1" vertex="1">
          <mxGeometry x="530" y="480" width="80" height="40" as="geometry" />
        </mxCell>
        <mxCell id="klztxDfXL3SWlEv4E9YF-47" style="edgeStyle=orthogonalEdgeStyle;rounded=0;orthogonalLoop=1;jettySize=auto;html=1;exitX=0;exitY=0.5;exitDx=0;exitDy=0;entryX=1;entryY=0.5;entryDx=0;entryDy=0;" edge="1" parent="1" source="uEN0KCoKJImzQFJew8uD-58" target="klztxDfXL3SWlEv4E9YF-27">
          <mxGeometry relative="1" as="geometry" />
        </mxCell>
        <mxCell id="uEN0KCoKJImzQFJew8uD-58" value="PR" style="rhombus;whiteSpace=wrap;html=1;" parent="1" vertex="1">
          <mxGeometry x="600" y="600" width="60" height="40" as="geometry" />
        </mxCell>
        <mxCell id="klztxDfXL3SWlEv4E9YF-21" style="edgeStyle=orthogonalEdgeStyle;rounded=0;orthogonalLoop=1;jettySize=auto;html=1;exitX=1;exitY=0.5;exitDx=0;exitDy=0;entryX=0;entryY=0.5;entryDx=0;entryDy=0;" edge="1" parent="1" source="uEN0KCoKJImzQFJew8uD-60" target="uEN0KCoKJImzQFJew8uD-91">
          <mxGeometry relative="1" as="geometry" />
        </mxCell>
        <mxCell id="uEN0KCoKJImzQFJew8uD-60" value="release/vX.Y.Z" style="shape=parallelogram;perimeter=parallelogramPerimeter;whiteSpace=wrap;html=1;fixedSize=1;fillColor=#dae8fc;strokeColor=#6c8ebf;" parent="1" vertex="1">
          <mxGeometry x="270" y="680" width="140" height="40" as="geometry" />
        </mxCell>
        <mxCell id="klztxDfXL3SWlEv4E9YF-45" style="edgeStyle=orthogonalEdgeStyle;rounded=0;orthogonalLoop=1;jettySize=auto;html=1;exitX=0;exitY=0.5;exitDx=0;exitDy=0;entryX=1;entryY=0.5;entryDx=0;entryDy=0;" edge="1" parent="1" source="uEN0KCoKJImzQFJew8uD-64" target="uEN0KCoKJImzQFJew8uD-95">
          <mxGeometry relative="1" as="geometry" />
        </mxCell>
        <mxCell id="uEN0KCoKJImzQFJew8uD-64" value="main&lt;br&gt;（+ tag vX.Y.Z）" style="shape=parallelogram;perimeter=parallelogramPerimeter;whiteSpace=wrap;html=1;fixedSize=1;fillColor=#dae8fc;strokeColor=#6c8ebf;" parent="1" vertex="1">
          <mxGeometry x="360" y="760" width="140" height="40" as="geometry" />
        </mxCell>
        <mxCell id="uEN0KCoKJImzQFJew8uD-83" style="edgeStyle=orthogonalEdgeStyle;rounded=0;orthogonalLoop=1;jettySize=auto;html=1;exitX=1;exitY=0.5;exitDx=0;exitDy=0;entryX=0;entryY=0.5;entryDx=0;entryDy=0;" parent="1" source="uEN0KCoKJImzQFJew8uD-68" target="uEN0KCoKJImzQFJew8uD-55" edge="1">
          <mxGeometry relative="1" as="geometry">
            <mxPoint x="550" y="480" as="targetPoint" />
            <Array as="points">
              <mxPoint x="510" y="460" />
              <mxPoint x="510" y="500" />
            </Array>
          </mxGeometry>
        </mxCell>
        <mxCell id="uEN0KCoKJImzQFJew8uD-68" value="開發" style="rhombus;whiteSpace=wrap;html=1;" parent="1" vertex="1">
          <mxGeometry x="440" y="440" width="60" height="40" as="geometry" />
        </mxCell>
        <mxCell id="uEN0KCoKJImzQFJew8uD-84" style="edgeStyle=orthogonalEdgeStyle;rounded=0;orthogonalLoop=1;jettySize=auto;html=1;exitX=1;exitY=0.5;exitDx=0;exitDy=0;entryX=0;entryY=0.5;entryDx=0;entryDy=0;" parent="1" source="uEN0KCoKJImzQFJew8uD-70" target="uEN0KCoKJImzQFJew8uD-55" edge="1">
          <mxGeometry relative="1" as="geometry">
            <mxPoint x="550" y="520" as="targetPoint" />
            <Array as="points">
              <mxPoint x="510" y="540" />
              <mxPoint x="510" y="500" />
            </Array>
          </mxGeometry>
        </mxCell>
        <mxCell id="uEN0KCoKJImzQFJew8uD-70" value="修復" style="rhombus;whiteSpace=wrap;html=1;" parent="1" vertex="1">
          <mxGeometry x="440" y="520" width="60" height="40" as="geometry" />
        </mxCell>
        <mxCell id="klztxDfXL3SWlEv4E9YF-43" style="edgeStyle=orthogonalEdgeStyle;rounded=0;orthogonalLoop=1;jettySize=auto;html=1;exitX=1;exitY=0.5;exitDx=0;exitDy=0;entryX=0;entryY=0.5;entryDx=0;entryDy=0;" edge="1" parent="1" source="uEN0KCoKJImzQFJew8uD-86" target="klztxDfXL3SWlEv4E9YF-30">
          <mxGeometry relative="1" as="geometry" />
        </mxCell>
        <mxCell id="uEN0KCoKJImzQFJew8uD-86" value="PR" style="rhombus;whiteSpace=wrap;html=1;" parent="1" vertex="1">
          <mxGeometry x="120" y="680" width="60" height="40" as="geometry" />
        </mxCell>
        <mxCell id="klztxDfXL3SWlEv4E9YF-34" style="edgeStyle=orthogonalEdgeStyle;rounded=0;orthogonalLoop=1;jettySize=auto;html=1;exitX=1;exitY=0.5;exitDx=0;exitDy=0;entryX=0;entryY=0.5;entryDx=0;entryDy=0;" edge="1" parent="1" source="uEN0KCoKJImzQFJew8uD-91" target="klztxDfXL3SWlEv4E9YF-33">
          <mxGeometry relative="1" as="geometry" />
        </mxCell>
        <mxCell id="uEN0KCoKJImzQFJew8uD-91" value="PR" style="rhombus;whiteSpace=wrap;html=1;" parent="1" vertex="1">
          <mxGeometry x="450" y="680" width="60" height="40" as="geometry" />
        </mxCell>
        <mxCell id="klztxDfXL3SWlEv4E9YF-37" style="edgeStyle=orthogonalEdgeStyle;rounded=0;orthogonalLoop=1;jettySize=auto;html=1;exitX=0;exitY=0.5;exitDx=0;exitDy=0;entryX=1;entryY=0.5;entryDx=0;entryDy=0;" edge="1" parent="1" source="uEN0KCoKJImzQFJew8uD-95" target="uEN0KCoKJImzQFJew8uD-97">
          <mxGeometry relative="1" as="geometry" />
        </mxCell>
        <mxCell id="uEN0KCoKJImzQFJew8uD-95" value="CI" style="rhombus;whiteSpace=wrap;html=1;" parent="1" vertex="1">
          <mxGeometry x="290" y="760" width="60" height="40" as="geometry" />
        </mxCell>
        <mxCell id="klztxDfXL3SWlEv4E9YF-38" style="edgeStyle=orthogonalEdgeStyle;rounded=0;orthogonalLoop=1;jettySize=auto;html=1;exitX=0;exitY=0.5;exitDx=0;exitDy=0;entryX=1;entryY=0.5;entryDx=0;entryDy=0;" edge="1" parent="1" source="uEN0KCoKJImzQFJew8uD-97" target="uEN0KCoKJImzQFJew8uD-99">
          <mxGeometry relative="1" as="geometry" />
        </mxCell>
        <mxCell id="uEN0KCoKJImzQFJew8uD-97" value="CD" style="rhombus;whiteSpace=wrap;html=1;" parent="1" vertex="1">
          <mxGeometry x="210" y="760" width="60" height="40" as="geometry" />
        </mxCell>
        <mxCell id="uEN0KCoKJImzQFJew8uD-99" value="自動部署 Production" style="rounded=0;whiteSpace=wrap;html=1;fillColor=#f8cecc;strokeColor=#b85450;" parent="1" vertex="1">
          <mxGeometry x="110" y="760" width="80" height="40" as="geometry" />
        </mxCell>
        <mxCell id="klztxDfXL3SWlEv4E9YF-42" style="edgeStyle=orthogonalEdgeStyle;rounded=0;orthogonalLoop=1;jettySize=auto;html=1;exitX=0.5;exitY=1;exitDx=0;exitDy=0;entryX=0.5;entryY=0;entryDx=0;entryDy=0;" edge="1" parent="1" source="uEN0KCoKJImzQFJew8uD-102" target="uEN0KCoKJImzQFJew8uD-86">
          <mxGeometry relative="1" as="geometry" />
        </mxCell>
        <mxCell id="uEN0KCoKJImzQFJew8uD-102" value="Staging&lt;br&gt;（預演環境）" style="rounded=0;whiteSpace=wrap;html=1;fillColor=#f8cecc;strokeColor=#b85450;" parent="1" vertex="1">
          <mxGeometry x="110" y="600" width="80" height="40" as="geometry" />
        </mxCell>
        <mxCell id="klztxDfXL3SWlEv4E9YF-18" style="edgeStyle=orthogonalEdgeStyle;rounded=0;orthogonalLoop=1;jettySize=auto;html=1;exitX=0;exitY=0.5;exitDx=0;exitDy=0;entryX=1;entryY=0.5;entryDx=0;entryDy=0;" edge="1" parent="1" source="klztxDfXL3SWlEv4E9YF-2" target="klztxDfXL3SWlEv4E9YF-17">
          <mxGeometry relative="1" as="geometry" />
        </mxCell>
        <mxCell id="klztxDfXL3SWlEv4E9YF-2" value="CI" style="rhombus;whiteSpace=wrap;html=1;" vertex="1" parent="1">
          <mxGeometry x="290" y="600" width="60" height="40" as="geometry" />
        </mxCell>
        <mxCell id="klztxDfXL3SWlEv4E9YF-19" style="edgeStyle=orthogonalEdgeStyle;rounded=0;orthogonalLoop=1;jettySize=auto;html=1;exitX=0;exitY=0.5;exitDx=0;exitDy=0;entryX=1;entryY=0.5;entryDx=0;entryDy=0;" edge="1" parent="1" source="klztxDfXL3SWlEv4E9YF-17" target="uEN0KCoKJImzQFJew8uD-102">
          <mxGeometry relative="1" as="geometry" />
        </mxCell>
        <mxCell id="klztxDfXL3SWlEv4E9YF-17" value="CD" style="rhombus;whiteSpace=wrap;html=1;" vertex="1" parent="1">
          <mxGeometry x="210" y="600" width="60" height="40" as="geometry" />
        </mxCell>
        <mxCell id="klztxDfXL3SWlEv4E9YF-28" style="edgeStyle=orthogonalEdgeStyle;rounded=0;orthogonalLoop=1;jettySize=auto;html=1;exitX=0;exitY=0.5;exitDx=0;exitDy=0;entryX=1;entryY=0.5;entryDx=0;entryDy=0;" edge="1" parent="1" source="klztxDfXL3SWlEv4E9YF-27" target="uEN0KCoKJImzQFJew8uD-36">
          <mxGeometry relative="1" as="geometry" />
        </mxCell>
        <mxCell id="klztxDfXL3SWlEv4E9YF-27" value="CI" style="rhombus;whiteSpace=wrap;html=1;" vertex="1" parent="1">
          <mxGeometry x="520" y="600" width="60" height="40" as="geometry" />
        </mxCell>
        <mxCell id="klztxDfXL3SWlEv4E9YF-32" style="edgeStyle=orthogonalEdgeStyle;rounded=0;orthogonalLoop=1;jettySize=auto;html=1;exitX=1;exitY=0.5;exitDx=0;exitDy=0;entryX=0;entryY=0.5;entryDx=0;entryDy=0;" edge="1" parent="1" source="klztxDfXL3SWlEv4E9YF-30" target="uEN0KCoKJImzQFJew8uD-60">
          <mxGeometry relative="1" as="geometry" />
        </mxCell>
        <mxCell id="klztxDfXL3SWlEv4E9YF-30" value="CI" style="rhombus;whiteSpace=wrap;html=1;" vertex="1" parent="1">
          <mxGeometry x="200" y="680" width="60" height="40" as="geometry" />
        </mxCell>
        <mxCell id="klztxDfXL3SWlEv4E9YF-44" style="edgeStyle=orthogonalEdgeStyle;rounded=0;orthogonalLoop=1;jettySize=auto;html=1;exitX=1;exitY=0.5;exitDx=0;exitDy=0;entryX=1;entryY=0.5;entryDx=0;entryDy=0;" edge="1" parent="1" source="klztxDfXL3SWlEv4E9YF-33" target="uEN0KCoKJImzQFJew8uD-64">
          <mxGeometry relative="1" as="geometry">
            <Array as="points">
              <mxPoint x="620" y="700" />
              <mxPoint x="620" y="780" />
            </Array>
          </mxGeometry>
        </mxCell>
        <mxCell id="klztxDfXL3SWlEv4E9YF-33" value="CI" style="rhombus;whiteSpace=wrap;html=1;" vertex="1" parent="1">
          <mxGeometry x="540" y="680" width="60" height="40" as="geometry" />
        </mxCell>
      </root>
    </mxGraphModel>
  </diagram>
</mxfile>
